<svg width="16" height="16" viewBox="0 0 16 16" fill="none" xmlns="http://www.w3.org/2000/svg">
<path d="M11.9375 0.6875H4.0625C2.19854 0.6875 0.6875 2.19854 0.6875 4.0625V11.9375C0.6875 13.8015 2.19854 15.3125 4.0625 15.3125H11.9375C13.8015 15.3125 15.3125 13.8015 15.3125 11.9375V4.0625C15.3125 2.19854 13.8015 0.6875 11.9375 0.6875Z" stroke="#D7DB4D" stroke-linejoin="round"/>
<path d="M12.6737 4.32828C11.8138 3.545 10.2578 2.52125 8.00003 2.52125C5.74229 2.52125 4.18628 3.545 3.32635 4.32828C3.09274 4.54108 2.95094 4.83632 2.93087 5.15169C2.9108 5.46706 3.01403 5.77789 3.21878 6.01859L4.39018 7.39707C4.53259 7.56389 4.73009 7.67412 4.94684 7.70772C5.16358 7.74133 5.3852 7.6961 5.57143 7.58023C6.13112 7.23465 7.00967 6.81945 8.00073 6.81945C8.99178 6.81945 9.87034 7.23465 10.43 7.58023C10.6163 7.6961 10.8379 7.74133 11.0546 7.70772C11.2714 7.67412 11.4689 7.56389 11.6113 7.39707L12.7813 6.01859C12.986 5.77789 13.0893 5.46706 13.0692 5.15169C13.0491 4.83632 12.9073 4.54108 12.6737 4.32828Z" stroke="#D7DB4D" stroke-linejoin="round"/>
</svg>
