<svg width="11" height="16" viewBox="0 0 11 16" fill="none" xmlns="http://www.w3.org/2000/svg">
<path d="M5.86808 12.8681C7.14839 12.2436 11 9.44956 11 5.5C11 2.46243 8.53757 0 5.5 0C2.46243 0 0 2.46243 0 5.5C0 9.44956 3.85161 12.2436 5.13192 12.8681L4.42678 13.5732C4.26929 13.7307 4.38083 14 4.60355 14H5.32338C5.51559 14.6184 6.06723 15.0333 6.76144 15.2963C7.62846 15.6247 8.78909 15.75 10 15.75C10.1381 15.75 10.25 15.6381 10.25 15.5C10.25 15.3619 10.1381 15.25 10 15.25C8.81091 15.25 7.72154 15.1253 6.93856 14.8287C6.39329 14.6222 6.03113 14.3487 5.86143 14H6.39645C6.61917 14 6.73071 13.7307 6.57322 13.5732L5.86808 12.8681ZM10 5.5C10 7.37155 8.95445 9.00634 7.73039 10.2304C7.12775 10.833 6.51091 11.3058 6.02404 11.6233C5.81373 11.7605 5.63536 11.8637 5.5 11.9339C5.36465 11.8637 5.18627 11.7605 4.97596 11.6233C4.48909 11.3058 3.87225 10.833 3.26961 10.2304C2.04555 9.00634 1 7.37155 1 5.5C1 3.01472 3.01472 1 5.5 1C7.98528 1 10 3.01472 10 5.5ZM5.30545 12.0243C5.28518 12.0316 5.28715 12.0294 5.30649 12.0239L5.30545 12.0243Z" fill="black"/>
</svg>
